<?xml version="1.0" standalone="no"?>
<!DOCTYPE svg PUBLIC "-//W3C//DTD SVG 20010904//EN"
 "http://www.w3.org/TR/2001/REC-SVG-20010904/DTD/svg10.dtd">
<svg version="1.0" xmlns="http://www.w3.org/2000/svg"
 width="512.000000pt" height="512.000000pt" viewBox="0 0 512.000000 512.000000"
 preserveAspectRatio="xMidYMid meet">
<metadata>
Created by potrace 1.14, written by Peter Selinger 2001-2017
</metadata>
<g transform="translate(0.000000,512.000000) scale(0.100000,-0.100000)"
fill="#000000" stroke="none">
<path d="M512 5106 c-79 -26 -117 -49 -177 -110 -63 -63 -97 -123 -115 -198
-6 -26 -10 -325 -10 -764 0 -701 -1 -723 -21 -780 -30 -89 -86 -309 -99 -394
-6 -41 -13 -86 -16 -100 -23 -142 -23 -412 2 -625 27 -238 114 -527 229 -760
288 -588 788 -1031 1396 -1239 114 -39 315 -91 394 -102 28 -3 59 -8 70 -10
100 -19 451 -25 590 -11 63 6 97 11 215 32 236 41 531 151 759 283 420 241
780 631 986 1067 76 159 140 338 171 477 2 10 6 28 9 41 3 12 12 58 20 102 44
244 51 469 21 736 -20 183 -93 464 -165 631 -18 43 -18 48 -4 60 29 23 131
157 166 216 36 62 86 179 93 220 3 14 7 29 10 34 3 4 11 52 18 107 16 128 12
217 -18 360 -23 106 -108 281 -181 370 -81 98 -187 189 -290 246 -66 37 -198
89 -250 98 -17 3 -41 9 -55 13 -14 4 -853 9 -1865 10 -1536 3 -1847 1 -1883
-10z"/>
</g>
</svg>
